<svg width="112px" height="48px" version="1.1" viewBox="0 0 112 48" xmlns="http://www.w3.org/2000/svg"><title>Option</title><desc>Líderes en transformación digital.</desc><g fill="#fff" fill-rule="nonzero"><path d="m54.518 19c3.0504 0 5.4547 2.4639 5.4821 5.5s-2.416 5.5-5.4821 5.5c-3.066 0-5.4821-2.4639-5.5173-5.5-0.035242-3.0361 2.4317-5.5 5.5173-5.5zm0 10.242c2.5139 0 4.6363-2.0885 4.6519-4.7419s-2.1537-4.727-4.6519-4.727c-2.5962 0-4.6989 2.0439-4.6989 4.7233s2.1067 4.7419 4.6989 4.7419v0.0037162z" stroke="#fff" stroke-width=".5"></path><path d="m63.004 19.435c0.038923-0.23318 0.2411-0.41209 0.49146-0.4349h3.2964c1.804 0.070928 3.2231 1.4712 3.208 3.1653-0.015091 1.6941-1.459 3.0719-3.264 3.1145l-2.9368 0.04499v4.3003c0 0.20706-0.17889 0.37491-0.39956 0.37491-0.22067 0-0.39956-0.16786-0.39956-0.37491l0.0039956-10.19zm3.7879 5.1888c1.4344 0 2.5972-1.0911 2.5972-2.4369s-1.1628-2.4369-2.5972-2.4369h-2.9887v4.8739h2.9887z" stroke="#fff" stroke-width=".5"></path><path d="m76.78 19.75h-3.409c-0.20464 0-0.37054-0.16786-0.37054-0.37491s0.1659-0.37491 0.37054-0.37491h7.2589c0.20464 0 0.37054 0.16786 0.37054 0.37491s-0.1659 0.37491-0.37054 0.37491h-3.1088v9.8753c0 0.20706-0.1659 0.37491-0.37054 0.37491-0.20464 0-0.37054-0.16786-0.37054-0.37491v-9.8753z" stroke="#fff" stroke-width=".5"></path><path d="m85 19.377c0-0.2082 0.22386-0.37697 0.5-0.37697s0.5 0.16878 0.5 0.37697v10.246c0 0.2082-0.22386 0.37697-0.5 0.37697s-0.5-0.16878-0.5-0.37697v-10.246z" stroke="#fff" stroke-width=".5"></path><path d="m95.5 19c3.0642 0 5.4684 2.4639 5.4999 5.5 0.031427 3.0361-2.4239 5.5-5.4999 5.5s-5.4999-2.4639-5.4999-5.5 2.4239-5.5 5.4999-5.5zm0 10.242c2.5221 0 4.6513-2.0885 4.667-4.7419s-2.1292-4.727-4.667-4.727c-2.6046 0-4.7142 2.0439-4.7142 4.7233s2.1292 4.7419 4.7142 4.7419v0.0037162z" stroke="#fff" stroke-width=".5"></path><path d="m104.73 20.583v9.0386c0 0.20895-0.16274 0.37834-0.36349 0.37834-0.20075 0-0.36349-0.16939-0.36349-0.37834v-10.128c-0.017975-0.16051 0.040356-0.32006 0.1563-0.42753 0.19719-0.11485 0.4441-0.075913 0.59976 0.094586l6.5138 9.277v-8.9894c0-0.20895 0.16274-0.37834 0.36349-0.37834 0.20075 0 0.36349 0.16939 0.36349 0.37834v10.174c-0.036402 0.22521-0.22785 0.38722-0.44709 0.37834-0.12165 0.0028168-0.23843-0.049675-0.31987-0.14377 0 0-0.083603-0.030268-0.098143-0.064318l-6.4047-9.2089z" stroke="#fff" stroke-width=".5"></path><path id="isotipo" d="m39.19 3.6564c1.2032 0.51544 2.1 1.8427 2.1 3.6693v33.265c0 1.5817-0.74839 2.8993-2.1194 3.476l0.019355-40.41zm-3.9355-1.9683c1.4065 0 2.4871 1.0502 2.4871 2.6191v38.954c0 1.5463-0.96774 2.706-2.4903 2.706-0.090323 0-0.4129-0.025772-0.4129-0.025772v-44.208s0.34516-0.045101 0.41613-0.045101zm-18.158 16.12c3.4968 0.012886 5.9839 2.5772 5.9839 6.0274s-2.471 6.0403-5.9839 6.0274c-3.5129-0.012886-5.9839-2.5772-5.9839-6.0274s2.4774-6.0274 5.9839-6.0274zm16.452 27.937c0 1.0921-0.73226 1.9329-1.7129 1.9554-0.17655-2.49e-5 -0.35156-0.032795-0.51613-0.096644l-1.0742-0.38336c-7.7677-2.5772-17.929-2.8993-21.074-2.8993-0.61613 0-5.8065-0.035436-5.8065-0.035436-1.6677 0-3.3645-1.8942-3.3645-3.5436v-33.916c0-1.6494 1.8516-3.4889 3.5194-3.4889 0 0 2.0548 0.083758 5.871 0.083758 4.8032 0 12.3-0.69584 18.403-2.429l2.9032-0.72805s0.38065-0.11275 0.77097-0.20295c0.15283-0.039372 0.30991-0.059928 0.46774-0.061208 1.0323 0 1.6129 0.8698 1.6129 2.0617v43.683zm-16.452-14.851c4.1129-0.0096644 7.0677-3.0475 7.0677-7.055s-2.9419-7.0711-7.0677-7.0615c-4.1258 0.0096644-7.0968 3.0346-7.0968 7.0615 0 4.0268 2.971 7.0454 7.0968 7.055z"></path></g></svg>